:SAMPLES-PER-SECOND 30
:FULLY-SPECIFIED
:DEGREES
528
root  -3.24419 40.7879 0.680073 -3.03435 -70.337 5.00386
RightUpLeg  5.2519 -3.8763 -2.46664
RightLeg  -1.74653 -36.5044 1.90311
RightFoot  -2.94643 -0.362183 4.65767
RightToes  -3.13006e-008 1.75238e-005 3.56266e-009
Spine  -2.42781 6.28778 7.1886
Spine1  7.74831 9.66243 -13.2338
HEad  -32.3132 -25.6222 32.8227
LeftShoulder1  4.34329 -8.72348 -29.5023
LeftArm  -11.1757 20.6099 -42.4849
LeftForeArm  156.072 -71.5503 -149.064
LeftHand  -0.169369 -4.16655 2.3326
RightShoulder  2.42927 7.77713 14.7261
RightArm  30.7534 69.3749 77.0253
RightForeArm  37.1636 69.8829 27.6902
RightHand  0.853479 7.15823 7.58585
LeftUpLeg  -3.05156 -1.33285 0.365501
LeftLeg  3.21678 -3.62706 -0.245302
LeftFoot  -1.62329 0.233204 -2.62912
LeftToes  4.76866e-008 1.46233e-008 1.30548e-009
529
root  -3.14634 40.7921 0.749125 -3.16864 -72.0216 5.03844
RightUpLeg  4.74076 -3.91666 -2.65357
RightLeg  -1.00181 -34.7568 1.46222
RightFoot  -2.91405 -0.367224 4.71109
RightToes  -3.13006e-008 1.75238e-005 3.56266e-009
Spine  -1.97515 6.77413 7.57077
Spine1  8.49222 10.2411 -13.0358
HEad  -33.3588 -25.9186 34.0448
LeftShoulder1  4.4634 -9.13912 -29.2769
LeftArm  -9.1862 23.7078 -41.7246
LeftForeArm  156.543 -71.9592 -148.422
LeftHand  -0.334573 -3.96338 4.42398
RightShoulder  2.42768 7.57389 15.1418
RightArm  40.6558 69.6871 88.9352
RightForeArm  39.9471 70.0562 27.607
RightHand  -0.045541 9.04115 -0.837876
LeftUpLeg  -2.94396 -1.26596 0.356792
LeftLeg  3.3431 -2.00335 -0.201924
LeftFoot  -1.67133 0.210947 -2.37516
LeftToes  4.76866e-008 1.46233e-008 1.30548e-009
530
root  -3.06377 40.7948 0.829414 -2.65945 -73.2414 4.45212
RightUpLeg  4.39125 -3.86157 -2.64938
RightLeg  -0.632397 -33.6008 1.3097
RightFoot  -2.78185 -0.370836 4.69844
RightToes  -3.13006e-008 1.75238e-005 3.56266e-009
Spine  -1.63101 6.66468 7.80575
Spine1  8.84753 10.0879 -12.6783
HEad  -33.6345 -25.0057 34.3159
LeftShoulder1  4.35432 -8.98389 -28.8352
LeftArm  -7.2797 27.1972 -41.5365
LeftForeArm  157.02 -71.9012 -148.596
LeftHand  -0.361673 -4.22068 4.64945
RightShoulder  2.33378 7.61505 14.1096
RightArm  47.5739 69.1698 99.5742
RightForeArm  40.4323 69.3375 26.2073
RightHand  -0.785389 9.53706 -6.53791
LeftUpLeg  -3.02967 -1.19773 0.451114
LeftLeg  3.71201 -0.893831 -0.0807736
LeftFoot  -1.87544 0.196643 -2.23904
LeftToes  4.76866e-008 1.46233e-008 1.30548e-009
531
root  -3.00451 40.7987 0.874928 -2.09094 -73.9787 3.8933
RightUpLeg  4.17204 -3.73544 -2.55524
RightLeg  -0.62493 -33.0227 1.30362
RightFoot  -2.59222 -0.375449 4.67308
RightToes  -3.13006e-008 1.75238e-005 3.56266e-009
Spine  -1.69839 6.54927 7.38922
Spine1  9.40498 9.78222 -11.6529
HEad  -33.242 -23.683 33.6557
LeftShoulder1  4.41639 -9.05909 -29.1273
LeftArm  -5.78471 29.6113 -41.006
LeftForeArm  157.36 -71.8807 -148.679
LeftHand  -0.355762 -4.40024 4.50329
RightShoulder  2.11587 7.14062 12.8989
RightArm  50.8533 69.3447 106.408
RightForeArm  43.8666 68.1958 23.8143
RightHand  -1.19202 9.29868 -9.77902
LeftUpLeg  -3.15547 -1.03499 0.597744
LeftLeg  3.89247 -0.338222 -0.0905772
LeftFoot  -1.89612 0.176155 -1.99452
LeftToes  4.76866e-008 1.46233e-008 1.30548e-009
532
root  -2.94648 40.8083 0.928588 -1.92908 -74.449 3.7755
RightUpLeg  3.97189 -3.686 -2.59936
RightLeg  -0.611587 -32.6207 1.24176
RightFoot  -2.35083 -0.386039 4.7028
RightToes  -3.13006e-008 1.75238e-005 3.56266e-009
Spine  -1.91729 6.30898 6.96439
Spine1  9.84534 9.3896 -10.8862
HEad  -31.8591 -23.1796 33.1865
LeftShoulder1  4.40977 -8.97843 -29.3049
LeftArm  -3.70122 31.8484 -40.2691
LeftForeArm  158.563 -71.4128 -149.665
LeftHand  -0.359086 -4.53282 4.48945
RightShoulder  2.04987 6.90056 12.7017
RightArm  49.6194 69.2888 107.992
RightForeArm  44.1558 66.4634 21.4237
RightHand  -1.22104 10.145 -9.48206
LeftUpLeg  -3.19386 -0.97223 0.612424
LeftLeg  3.82661 0.0912571 -0.167537
LeftFoot  -1.81751 0.171594 -1.95872
LeftToes  4.76866e-008 1.46233e-008 1.30548e-009
533
root  -2.91495 40.8184 0.977102 -1.8876 -74.5619 3.57465
RightUpLeg  4.26009 -3.64666 -2.61345
RightLeg  -1.03283 -32.5874 1.41944
RightFoot  -2.10353 -0.396042 4.71921
RightToes  -3.13006e-008 1.75238e-005 3.56266e-009
Spine  -3.0505 6.14854 6.54369
Spine1  11.4016 9.18288 -10.2431
HEad  -30.4216 -23.1283 32.8279
LeftShoulder1  4.38504 -9.02579 -28.9654
LeftArm  -2.23734 32.5456 -40.4202
LeftForeArm  158.416 -71.5216 -149.459
LeftHand  -0.33666 -4.55826 4.22039
RightShoulder  1.9977 6.39483 13.2239
RightArm  44.311 69.341 104.015
RightForeArm  41.6061 64.6076 19.6491
RightHand  -1.28545 10.3733 -9.82972
LeftUpLeg  -3.00065 -0.817738 0.648541
LeftLeg  3.73794 0.0615462 -0.288834
LeftFoot  -1.75723 0.163857 -1.85761
LeftToes  4.76866e-008 1.46233e-008 1.30548e-009
534
root  -2.88728 40.8249 1.02411 -1.99948 -74.5782 3.56546
RightUpLeg  4.38358 -3.56081 -2.61428
RightLeg  -1.10735 -32.6976 1.30986
RightFoot  -1.94242 -0.405694 4.77935
RightToes  -3.13006e-008 1.75238e-005 3.56266e-009
Spine  -3.99249 5.79243 6.1213
Spine1  12.24 8.7788 -9.90896
HEad  -28.3381 -22.975 32.0713
LeftShoulder1  4.29548 -8.90461 -28.5809
LeftArm  -0.542451 33.1873 -40.0553
LeftForeArm  158.713 -71.2591 -149.939
LeftHand  -0.324277 -4.90253 3.9566
RightShoulder  2.189 6.70406 14.6296
RightArm  35.7656 67.8724 94.9639
RightForeArm  38.6708 62.7436 18.1923
RightHand  -1.40048 9.53348 -11.2268
LeftUpLeg  -2.79243 -0.788815 0.594034
LeftLeg  3.53458 0.0469583 -0.349476
LeftFoot  -1.65283 0.154741 -1.72581
LeftToes  4.76866e-008 1.46233e-008 1.30548e-009
535
root  -2.86117 40.8327 1.07571 -2.33844 -74.3111 3.7935
RightUpLeg  4.61236 -3.64844 -2.78161
RightLeg  -1.30437 -32.873 1.39892
RightFoot  -1.83976 -0.413463 4.86414
RightToes  -3.13006e-008 1.75238e-005 3.56266e-009
Spine  -4.74714 5.25501 4.95402
Spine1  12.7155 7.87088 -8.43083
HEad  -25.214 -22.4962 30.182
LeftShoulder1  4.2778 -8.58066 -29.3742
LeftArm  0.219305 33.3351 -39.7606
LeftForeArm  159.643 -71.0903 -150.347
LeftHand  -0.338415 -5.12884 4.04178
RightShoulder  2.27473 6.83645 15.2346
RightArm  25.6411 65.6013 84.4027
RightForeArm  37.5633 60.7775 16.6484
RightHand  -1.38704 8.69334 -11.7661
LeftUpLeg  -2.56957 -0.86718 0.416674
LeftLeg  3.24838 -0.105644 -0.385282
LeftFoot  -1.4627 0.142381 -1.54104
LeftToes  4.76866e-008 1.46233e-008 1.30548e-009
536
root  -2.84337 40.8348 1.11804 -2.83089 -74.052 4.08128
RightUpLeg  4.83331 -3.76133 -2.95658
RightLeg  -1.2106 -33.0111 1.31468
RightFoot  -1.8625 -0.423144 5.00013
RightToes  -3.13006e-008 1.75238e-005 3.56266e-009
Spine  -5.49804 4.87129 4.41477
Spine1  13.2364 7.42177 -8.07666
HEad  -22.6426 -22.6749 28.8098
LeftShoulder1  4.15474 -8.33457 -29.0674
LeftArm  0.410535 32.8744 -40.6686
LeftForeArm  160.402 -71.2249 -150.24
LeftHand  -0.341077 -5.30436 4.01389
RightShoulder  2.55063 7.07356 17.5317
RightArm  17.7877 60.7816 74.4442
RightForeArm  35.666 59.2116 15.6701
RightHand  -1.14019 7.30167 -10.6922
LeftUpLeg  -2.25537 -0.968038 0.222573
LeftLeg  3.01491 -0.25088 -0.381062
LeftFoot  -1.34764 0.136258 -1.45737
LeftToes  4.76866e-008 1.46233e-008 1.30548e-009
537
root  -2.83443 40.8304 1.14702 -3.08752 -73.6771 4.07767
RightUpLeg  5.11638 -3.8315 -3.02757
RightLeg  -1.06737 -33.2685 1.21967
RightFoot  -1.95994 -0.43227 5.14226
RightToes  -3.13006e-008 1.75238e-005 3.56266e-009
Spine  -6.87019 4.61765 3.72446
Spine1  14.6898 7.04196 -7.25493
HEad  -21.1967 -22.7428 27.3557
LeftShoulder1  4.18823 -8.39606 -29.1697
LeftArm  0.302812 31.9302 -41.1547
LeftForeArm  161.049 -71.1522 -150.45
LeftHand  -0.338331 -5.07926 4.05635
RightShoulder  2.90574 7.47317 20.1022
RightArm  10.9327 55.6273 64.3329
RightForeArm  33.7011 58.4074 15.3119
RightHand  -0.540868 5.6109 -5.91856
LeftUpLeg  -2.02402 -1.04461 0.104476
LeftLeg  3.05295 -0.564908 -0.322586
LeftFoot  -1.36307 0.136865 -1.48608
LeftToes  4.76866e-008 1.46233e-008 1.30548e-009
538
root  -2.80909 40.829 1.16823 -3.34909 -73.3073 4.04202
RightUpLeg  5.45539 -3.97387 -3.13162
RightLeg  -1.03649 -33.4729 1.26839
RightFoot  -2.01617 -0.43178 5.14298
RightToes  -3.13006e-008 1.75238e-005 3.56266e-009
Spine  -7.22397 4.12478 2.84451
Spine1  15.143 6.32259 -6.29611
HEad  -19.4319 -21.8026 25.484
LeftShoulder1  4.18119 -8.25471 -29.5399
LeftArm  -0.262458 30.8583 -41.6505
LeftForeArm  161.211 -71.1629 -150.453
LeftHand  -0.358844 -5.27471 4.21664
RightShoulder  3.10564 7.57346 21.7683
RightArm  7.21535 49.8023 58.7736
RightForeArm  30.9595 57.6257 15.0621
RightHand  0.0195731 4.77287 -0.168879
LeftUpLeg  -1.79484 -1.09787 -0.00197751
LeftLeg  3.10926 -0.893748 -0.273828
LeftFoot  -1.31155 0.129912 -1.40175
LeftToes  4.76866e-008 1.46233e-008 1.30548e-009
539
root  -2.77262 40.8271 1.1841 -3.69315 -73.0659 4.13153
RightUpLeg  5.67646 -4.08536 -3.23733
RightLeg  -0.926974 -33.611 1.2227
RightFoot  -2.06083 -0.430183 5.12772
RightToes  -3.13006e-008 1.75238e-005 3.56266e-009
Spine  -7.98069 3.44829 1.97327
Spine1  16.4485 5.4983 -5.45541
HEad  -18.8519 -20.5222 24.4537
LeftShoulder1  4.10251 -8.05468 -29.4728
LeftArm  -1.34358 30.2495 -42.3746
LeftForeArm  161.186 -70.7895 -151.038
LeftHand  -0.375459 -5.13424 4.44781
RightShoulder  3.30541 7.85177 22.9106
RightArm  5.2998 45.1241 55.2696
RightForeArm  27.3764 57.0786 15.0513
RightHand  0.112096 4.66615 0.992618
LeftUpLeg  -1.54245 -1.16864 -0.128738
LeftLeg  3.02957 -1.07065 -0.232366
LeftFoot  -1.23322 0.11804 -1.24192
LeftToes  4.76866e-008 1.46233e-008 1.30548e-009
540
root  -2.73104 40.8233 1.18762 -3.98865 -73.2059 4.30884
RightUpLeg  5.60738 -4.14907 -3.33414
RightLeg  -0.625534 -33.3954 1.06368
RightFoot  -2.1253 -0.429103 5.11493
RightToes  -3.13006e-008 1.75238e-005 3.56266e-009
Spine  -8.15457 2.97433 1.58349
Spine1  16.7488 4.98023 -5.23354
HEad  -18.4934 -19.0763 23.0728
LeftShoulder1  3.99029 -7.90654 -28.9386
LeftArm  -2.48176 29.4423 -43.5186
LeftForeArm  160.006 -71.2425 -150.155
LeftHand  -0.385758 -4.973 4.62227
RightShoulder  3.56074 8.19715 24.2956
RightArm  3.62053 40.6834 52.5123
RightForeArm  25.0129 58.8587 16.536
RightHand  0.0801135 4.43823 0.661661
LeftUpLeg  -1.41819 -1.22884 -0.224673
LeftLeg  2.96399 -0.878968 -0.195464
LeftFoot  -1.18388 0.103576 -1.03923
LeftToes  4.76866e-008 1.46233e-008 1.30548e-009
541
root  -2.68536 40.8268 1.17833 -4.13684 -73.6569 4.4659
RightUpLeg  5.4325 -4.09415 -3.34713
RightLeg  -0.550428 -33.0169 0.975442
RightFoot  -2.10292 -0.42679 5.07067
RightToes  -3.13006e-008 1.75238e-005 3.56266e-009
Spine  -8.20151 2.72499 1.33719
Spine1  16.8225 4.67949 -5.06019
HEad  -18.2772 -17.4978 22.2349
LeftShoulder1  3.88997 -7.81296 -28.3278
LeftArm  -3.36803 28.9443 -44.5071
LeftForeArm  159.762 -71.5865 -149.548
LeftHand  -0.418867 -4.88875 5.02863
RightShoulder  3.93545 8.77316 26.0072
RightArm  0.26462 37.5388 49.7898
RightForeArm  26.238 61.7961 18.7926
RightHand  0.0855086 4.61106 0.688916
LeftUpLeg  -1.38402 -1.1698 -0.206472
LeftLeg  2.82178 -0.518321 -0.236389
LeftFoot  -1.10134 0.100434 -1.00637
LeftToes  4.76866e-008 1.46233e-008 1.30548e-009
542
root  -2.64245 40.8359 1.15714 -3.93573 -74.2092 4.18785
RightUpLeg  5.47121 -3.91338 -3.19065
RightLeg  -0.861984 -32.6998 1.09646
RightFoot  -1.93504 -0.421677 4.96384
RightToes  -3.13006e-008 1.75238e-005 3.56266e-009
Spine  -8.2245 2.73283 0.611182
Spine1  17.0285 4.33964 -3.80303
HEad  -18.3778 -16.1399 20.9576
LeftShoulder1  3.88737 -7.78829 -28.3805
LeftArm  -4.04341 27.9348 -45.0761
LeftForeArm  159.757 -72.0773 -148.7
LeftHand  -0.381526 -4.73224 4.67165
RightShoulder  4.11018 8.98752 26.8891
RightArm  -4.2488 36.2169 47.7834
RightForeArm  30.4521 64.5614 21.0334
RightHand  0.0465691 5.46371 0.212151
LeftUpLeg  -1.2536 -1.02088 -0.0441678
LeftLeg  2.6559 -0.149884 -0.225868
LeftFoot  -1.03214 0.103889 -1.06635
LeftToes  4.76866e-008 1.46233e-008 1.30548e-009
